# xmcd
#
# Track frame offsets:
#	182
#	13390
#	25605
#	33947
#	44277
#	59657
#	74570
#	85422
#	102630
#	117250
#	130485
#	147002
#	163647
#	179060
#	189507
#	205882
#	217110
#	229712
#	240172
#	252407
#
# Disc length: 3674
#
# Revision: 4
# Processed by: cddbd v1.5.1PL0 Copyright (c) Steve Scherf et al.
# Submitted via: audiograbber 1.83.01
# Normalized: r3:DSETVAR1
#
DISCID=2c0e5814
DTITLE=Various Artist - The Best Of Country Music
DYEAR=1990
DGENRE=Country
TTITLE0=Achim Krüger - Take Me Home, Country Roads
TTITLE1=Peter Tschernig - Ring Of Fire
TTITLE2=John Brack - On The Road Again
TTITLE3=George Sandifer - The Loving Way
TTITLE4=Achim Krüger - Thank God I'm A Country Boy
TTITLE5=Linda Feller - Apple Jack
TTITLE6=John Brack - Oh, Lonesome Me
TTITLE7=Country Band - Orange Blossom Special
TTITLE8=Harald Wilk - Detroit City
TTITLE9=George Sandifer - Alberta Sunrise
TTITLE10=Harald Wilk - Rocky Mountain Music
TTITLE11=John Brack - Your Cheatin' Heart
TTITLE12=Peter Tschernig - Good Hearted Woman
TTITLE13=Country Band - Foggy Mountain Breakdown
TTITLE14=M. Jones Band - If Your're Gonna Play In Texas (You Gotta Have A Fiddle In The Band)
TTITLE15=John Brack - Wabash Cannonball
TTITLE16=George Sandifer - Lady Of My Eyes
TTITLE17=Harald Wilk - Waiting For A Train
TTITLE18=John Brack - Es Praliné
TTITLE19=Country Band - Medley
EXTD=
EXTT0=
EXTT1=
EXTT2=
EXTT3=
EXTT4=
EXTT5=
EXTT6=
EXTT7=
EXTT8=
EXTT9=
EXTT10=
EXTT11=
EXTT12=
EXTT13=
EXTT14=
EXTT15=
EXTT16=
EXTT17=
EXTT18=
EXTT19=
PLAYORDER=
